<?xml version="1.0" standalone="no"?>
<svg viewBox="0 0 1024 1024" xmlns="http://www.w3.org/2000/svg">
  <path d="M893.3 293.3L730.7 130.7c-7.5-7.5-16.7-13.3-26.7-17.3-10-4-20.7-6-31.3-6H192c-35.3 0-64 28.7-64 64v768c0 35.3 28.7 64 64 64h640c35.3 0 64-28.7 64-64V352c0-21.3-8.5-41.7-23.7-56.7zM790.7 326L698 233.3V326h92.7zM832 928H192V128h384v224c0 17.7 14.3 32 32 32h224v544z"></path>
  <path d="M512 476c-79.5 0-144 64.5-144 144s64.5 144 144 144 144-64.5 144-144-64.5-144-144-144z m0 224c-44.2 0-80-35.8-80-80s35.8-80 80-80 80 35.8 80 80-35.8 80-80 80z"></path>
  <path d="M704 628v-64c0-17.7-14.3-32-32-32s-32 14.3-32 32v64h64zM384 628h64v-64c0-17.7-14.3-32-32-32s-32 14.3-32 32v64z"></path>
  <path d="M512 748c44.2 0 80-35.8 80-80H432c0 44.2 35.8 80 80 80z"></path>
</svg>
