<?xml version="1.0" encoding="UTF-8"?>
<svg width="128px" height="128px" viewBox="0 0 128 128" version="1.1" xmlns="http://www.w3.org/2000/svg">
    <path d="M102.4,12.8 L25.6,12.8 C18.537,12.8 12.8,18.534 12.8,25.6 L12.8,102.4 C12.8,109.465 18.537,115.2 25.6,115.2 L102.4,115.2 C109.463,115.2 115.2,109.465 115.2,102.4 L115.2,25.6 C115.2,18.534 109.463,12.8 102.4,12.8 Z M38.4,96 C34.865,96 32,93.135 32,89.6 C32,86.065 34.865,83.2 38.4,83.2 C41.935,83.2 44.8,86.065 44.8,89.6 C44.8,93.135 41.935,96 38.4,96 Z M38.4,70.4 C34.865,70.4 32,67.535 32,64 C32,60.465 34.865,57.6 38.4,57.6 C41.935,57.6 44.8,60.465 44.8,64 C44.8,67.535 41.935,70.4 38.4,70.4 Z M38.4,44.8 C34.865,44.8 32,41.935 32,38.4 C32,34.865 34.865,32 38.4,32 C41.935,32 44.8,34.865 44.8,38.4 C44.8,41.935 41.935,44.8 38.4,44.8 Z M96,86.4 L57.6,86.4 L57.6,73.6 L96,73.6 L96,86.4 Z M96,60.8 L57.6,60.8 L57.6,48 L96,48 L96,60.8 Z" fill="currentColor"/>
</svg>