<?xml version="1.0" encoding="UTF-8"?>
<svg width="24px" height="24px" viewBox="0 0 24 24" version="1.1" xmlns="http://www.w3.org/2000/svg">
    <g stroke="none" stroke-width="1" fill="none" fill-rule="evenodd">
        <path d="M4,6 L4,8 L8,8 L8,4 L6,4 L6,6 L4,6 M4,16 L4,18 L6,18 L6,20 L8,20 L8,16 L4,16 M16,4 L16,8 L20,8 L20,6 L18,6 L18,4 L16,4 M16,20 L18,20 L18,18 L20,18 L20,16 L16,16 L16,20 M12,10 C13.11,10 14,10.9 14,12 C14,13.1 13.11,14 12,14 C10.89,14 10,13.1 10,12 C10,10.9 10.9,10 12,10 M12,8 C9.79,8 8,9.79 8,12 C8,14.21 9.79,16 12,16 C14.21,16 16,14.21 16,12 C16,9.79 14.21,8 12,8 Z" fill="#000000" fill-rule="nonzero"></path>
    </g>
</svg>