<?xml version="1.0" encoding="UTF-8"?>
<svg width="128px" height="128px" viewBox="0 0 128 128" version="1.1" xmlns="http://www.w3.org/2000/svg">
    <path d="M64,12.8 L115.2,40.96 L115.2,97.28 L64,125.44 L12.8,97.28 L12.8,40.96 L64,12.8 Z M64,25.6 L25.6,46.08 L25.6,91.04 L64,111.52 L102.4,91.04 L102.4,46.08 L64,25.6 Z" fill="currentColor"></path>
    <path d="M38.4,51.2 L89.6,51.2 L89.6,64 L76.8,64 L76.8,76.8 L89.6,76.8 L89.6,89.6 L38.4,89.6 L38.4,76.8 L51.2,76.8 L51.2,64 L38.4,64 L38.4,51.2 Z" fill="currentColor" fill-opacity="0.6"></path>
    <path d="M108.8,25.6 L121.6,25.6 L121.6,38.4 L108.8,38.4 L108.8,25.6 Z M6.4,25.6 L19.2,25.6 L19.2,38.4 L6.4,38.4 L6.4,25.6 Z M108.8,89.6 L121.6,89.6 L121.6,102.4 L108.8,102.4 L108.8,89.6 Z M6.4,89.6 L19.2,89.6 L19.2,102.4 L6.4,102.4 L6.4,89.6 Z" fill="currentColor"></path>
</svg>