<?xml version="1.0" encoding="UTF-8"?>
<svg width="128px" height="128px" viewBox="0 0 128 128" version="1.1" xmlns="http://www.w3.org/2000/svg">
    <path d="M115.2,13.8 L12.8,13.8 C5.735,13.8 0,19.534 0,26.6 L0,87.4 C0,94.465 5.735,100.2 12.8,100.2 L43.435,100.2 L51.2,114.2 L76.8,114.2 L84.565,100.2 L115.2,100.2 C122.265,100.2 128,94.465 128,87.4 L128,26.6 C128,19.534 122.265,13.8 115.2,13.8 Z M115.2,87.4 L12.8,87.4 L12.8,26.6 L115.2,26.6 L115.2,87.4 Z" fill="currentColor"/>
    <path d="M64,38.8 C77.25,38.8 88,49.55 88,62.8 C88,76.05 77.25,86.8 64,86.8 C50.75,86.8 40,76.05 40,62.8 C40,49.55 50.75,38.8 64,38.8 Z M54.397,71.9 L73.437,71.9 L73.437,53.7 L54.397,53.7 L54.397,71.9 Z" fill="currentColor"/>
</svg>