<?xml version="1.0" encoding="UTF-8"?>
<svg width="128px" height="128px" viewBox="0 0 128 128" version="1.1" xmlns="http://www.w3.org/2000/svg">
    <path d="M48.4523108,10.6666667 L79.5476892,10.6666667 C84.2519846,10.6666667 88.5371631,13.2947692 90.5680615,17.5368205 L110.218215,57.203641 C112.234154,61.4112821 112.234154,66.5887179 110.218215,70.796359 L90.5680615,110.463179 C88.5371631,114.705231 84.2519846,117.333333 79.5476892,117.333333 L48.4523108,117.333333 C43.7480154,117.333333 39.4628369,114.705231 37.4319385,110.463179 L17.7817846,70.796359 C15.7658462,66.5887179 15.7658462,61.4112821 17.7817846,57.203641 L37.4319385,17.5368205 C39.4628369,13.2947692 43.7480154,10.6666667 48.4523108,10.6666667 Z M63.9961538,26.6666667 C52.3433231,26.6666667 42.6628308,36.3471589 42.6628308,47.9999897 C42.6628308,59.6528205 52.3433231,69.3333128 63.9961538,69.3333128 C75.6489846,69.3333128 85.3294769,59.6528205 85.3294769,47.9999897 C85.3294769,36.3471589 75.6489846,26.6666667 63.9961538,26.6666667 Z M42.6666667,79.9999897 C42.6666667,85.891641 55.1427692,90.6666564 64,90.6666564 C72.8572308,90.6666564 85.3333333,85.891641 85.3333333,79.9999897 L85.3333333,103.981313 C85.3333333,103.981313 83.6693333,106.611313 80.7693538,106.611313 L47.2306462,106.611313 C44.3306667,106.611313 42.6666667,103.981313 42.6666667,103.981313 L42.6666667,79.9999897 Z" fill="currentColor"/>
</svg>