<?xml version="1.0" encoding="UTF-8"?>
<svg width="128px" height="128px" viewBox="0 0 128 128" version="1.1" xmlns="http://www.w3.org/2000/svg">
    <path d="M64,19.2 L109.867,44.8 L109.867,96 L64,121.6 L18.133,96 L18.133,44.8 L64,19.2 Z M64,6.4 L6.4,38.4 L6.4,102.4 L64,134.4 L121.6,102.4 L121.6,38.4 L64,6.4 Z" fill="currentColor"></path>
    <path d="M64,32 L96,51.2 L96,89.6 L64,108.8 L32,89.6 L32,51.2 L64,32 Z" fill="currentColor" fill-opacity="0.5"></path>
    <path d="M57.6,57.6 C57.6,53.9982857 60.5217143,51.2 64,51.2 C67.4782857,51.2 70.4,53.9982857 70.4,57.6 L70.4,70.4 L83.2,70.4 C86.8017143,70.4 89.6,73.4434286 89.6,77.0285714 C89.6,80.6137143 86.8017143,83.6571429 83.2,83.6571429 L70.4,83.6571429 L70.4,96 C70.4,99.6017143 67.4782857,102.4 64,102.4 C60.5217143,102.4 57.6,99.6017143 57.6,96 L57.6,83.6571429 L44.8,83.6571429 C41.1982857,83.6571429 38.4,80.6137143 38.4,77.0285714 C38.4,73.4434286 41.1982857,70.4 44.8,70.4 L57.6,70.4 L57.6,57.6 Z" fill="currentColor"></path>
</svg>