<?xml version="1.0" encoding="UTF-8"?>
<svg width="128px" height="128px" viewBox="0 0 128 128" version="1.1" xmlns="http://www.w3.org/2000/svg">
    <path d="M64,12.8 C77.248,12.8 88,23.552 88,36.8 C88,43.64 85.104,49.803 80.431,54.106 C89.617,59.089 96,68.854 96,80 L96,96 C96,103.069 90.266,108.8 83.2,108.8 L44.8,108.8 C37.734,108.8 32,103.069 32,96 L32,80 C32,68.854 38.383,59.089 47.569,54.106 C42.896,49.803 40,43.637 40,36.8 C40,23.552 50.752,12.8 64,12.8 Z M64,22.4 C56.067,22.4 49.6,28.867 49.6,36.8 C49.6,44.732 56.067,51.2 64,51.2 C71.933,51.2 78.4,44.732 78.4,36.8 C78.4,28.867 71.933,22.4 64,22.4 Z M70.4,64 L57.6,64 C53.418,64 50.029,67.214 49.645,71.301 L49.6,72 L49.6,80 C49.6,84.182 52.814,87.571 56.901,87.955 L57.6,88 L70.4,88 C74.582,88 77.971,84.786 78.355,80.699 L78.4,80 L78.4,72 C78.4,67.817 75.186,64.429 71.099,64.045 L70.4,64 Z M64,70.4 C66.208,70.4 68,72.192 68,74.4 L68,74.4 L67.997,74.592 C67.904,76.608 66.214,78.2 64.153,78.294 L64.153,78.294 L64,78.4 C61.792,78.4 60,76.608 60,74.4 C60,72.192 61.792,70.4 64,70.4 Z" fill="currentColor"></path>
</svg>