<?xml version="1.0" encoding="UTF-8"?>
<svg width="128px" height="128px" viewBox="0 0 128 128" version="1.1" xmlns="http://www.w3.org/2000/svg">
    <path d="M92.928,64 C92.928,79.529 80.528,92.007 64.999,92.007 C49.472,92.007 37.072,79.529 37.072,64 C37.072,48.471 49.472,36.070 64.999,36.070 C80.528,36.070 92.928,48.471 92.928,64 Z" fill="currentColor"></path>
    <path d="M27.856,38.274 L45.283,29.278 L54.284,46.703 C49.341,49.075 45.284,53.131 42.911,58.071 L25.487,49.073 L27.856,38.274 Z" fill="currentColor" fill-opacity="0.7"></path>
    <path d="M27.856,89.726 L25.487,78.927 L42.914,69.929 C45.286,74.869 49.344,78.925 54.285,81.297 L45.283,98.722 L27.856,89.726 Z" fill="currentColor" fill-opacity="0.7"></path>
    <path d="M100.144,89.726 L82.717,98.722 L73.716,81.297 C78.657,78.924 82.714,74.869 85.087,69.929 L102.513,78.927 L100.144,89.726 Z" fill="currentColor" fill-opacity="0.7"></path>
    <path d="M100.144,38.274 L102.513,49.073 L85.086,58.072 C82.713,53.131 78.656,49.075 73.715,46.702 L82.717,29.278 L100.144,38.274 Z" fill="currentColor" fill-opacity="0.7"></path>
    <path d="M127.999,64 L121.142,75.999 L106.284,75.999 C105.571,69.56 102.821,63.824 98.641,59.357 L106.284,46 L121.142,46 L127.999,64 Z" fill="currentColor" fill-opacity="0.4"></path>
    <path d="M21.716,75.999 L6.858,75.999 L0,64 L6.858,46 L21.716,46 L29.357,59.359 C25.177,63.825 22.428,69.56 21.716,75.999 Z" fill="currentColor" fill-opacity="0.4"></path>
    <path d="M64.001,6.001 L76,12.858 L76,27.719 C69.561,28.432 63.826,31.181 59.36,35.36 L46.001,27.719 L46.001,12.858 L64.001,6.001 Z" fill="currentColor" fill-opacity="0.4"></path>
    <path d="M76,100.281 L76,115.142 L64.001,121.999 L46.001,115.142 L46.001,100.281 L59.36,92.64 C63.825,96.82 69.561,99.569 76,100.281 Z" fill="currentColor" fill-opacity="0.4"></path>
</svg>