<svg viewBox="0 0 1024 1024" xmlns="http://www.w3.org/2000/svg">
  <path d="M832 64H192c-35.2 0-64 28.8-64 64v768c0 35.2 28.8 64 64 64h640c35.2 0 64-28.8 64-64V128c0-35.2-28.8-64-64-64zm0 832H192V128h640v768zM280 784h112c13.3 0 24-10.7 24-24v-48c0-13.3-10.7-24-24-24h-112c-13.3 0-24 10.7-24 24v48c0 13.3 10.7 24 24 24zm0-192h112c13.3 0 24-10.7 24-24v-48c0-13.3-10.7-24-24-24h-112c-13.3 0-24 10.7-24 24v48c0 13.3 10.7 24 24 24zm0-192h112c13.3 0 24-10.7 24-24v-48c0-13.3-10.7-24-24-24h-112c-13.3 0-24 10.7-24 24v48c0 13.3 10.7 24 24 24zm224 384h240c13.3 0 24-10.7 24-24v-48c0-13.3-10.7-24-24-24h-240c-13.3 0-24 10.7-24 24v48c0 13.3 10.7 24 24 24zm0-192h240c13.3 0 24-10.7 24-24v-48c0-13.3-10.7-24-24-24h-240c-13.3 0-24 10.7-24 24v48c0 13.3 10.7 24 24 24zm0-192h240c13.3 0 24-10.7 24-24v-48c0-13.3-10.7-24-24-24h-240c-13.3 0-24 10.7-24 24v48c0 13.3 10.7 24 24 24z"/>
</svg>