<?xml version="1.0" encoding="UTF-8"?>
<svg width="128px" height="128px" viewBox="0 0 128 128" version="1.1" xmlns="http://www.w3.org/2000/svg">
  <g stroke="none" stroke-width="1" fill="none" fill-rule="evenodd">
    <path d="M63.9,7 C91.2,7 113,20.1 113,36.4 C113,44.4 107.7,51.7 98.3,57.1 L98.3,100.6 C98.3,109.7 83.2,117 64.5,117 C45.8,117 30.7,109.7 30.7,100.6 L30.7,56.9 C21,51.5 15.5,44.2 15.5,36 C15,20.1 36.6,7 63.9,7 Z M49.3,103.7 C48.4,103.7 47.5,102.8 47.5,101.9 C47.5,101 48.4,100.1 49.3,100.1 L78,100.1 C78.9,100.1 79.8,101 79.8,101.9 C79.8,102.8 78.9,103.7 78,103.7 L49.3,103.7 Z M49.3,86.9 C48.4,86.9 47.5,86 47.5,85.1 C47.5,84.2 48.4,83.3 49.3,83.3 L78,83.3 C78.9,83.3 79.8,84.2 79.8,85.1 C79.8,86 78.9,86.9 78,86.9 L49.3,86.9 Z M40.7,70.1 C39.8,70.1 38.9,69.2 38.9,68.3 C38.9,67.4 39.8,66.5 40.7,66.5 L87.1,66.5 C88,66.5 88.9,67.4 88.9,68.3 C88.9,69.2 88,70.1 87.1,70.1 L40.7,70.1 Z M63.9,51.5 C45.2,51.5 30.1,44.2 30.1,35.1 C30.1,26 45.2,18.7 63.9,18.7 C82.6,18.7 97.7,26 97.7,35.1 C97.7,44.2 82.6,51.5 63.9,51.5 Z" fill="currentColor" fill-rule="nonzero"></path>
  </g>
</svg>