<?xml version="1.0" encoding="UTF-8"?>
<svg width="128px" height="128px" viewBox="0 0 128 128" version="1.1" xmlns="http://www.w3.org/2000/svg">
    <path d="M25.6,19.2 C18.532,19.2 12.8,24.932 12.8,32 L12.8,96 C12.8,103.068 18.532,108.8 25.6,108.8 L102.4,108.8 C109.468,108.8 115.2,103.068 115.2,96 L115.2,32 C115.2,24.932 109.468,19.2 102.4,19.2 L25.6,19.2 Z M25.6,32 L102.4,32 L102.4,96 L25.6,96 L25.6,32 Z" fill="currentColor"></path>
    <path d="M38.4,44.8 L89.6,44.8 L89.6,57.6 L38.4,57.6 L38.4,44.8 Z M38.4,70.4 L89.6,70.4 L89.6,83.2 L38.4,83.2 L38.4,70.4 Z" fill="currentColor"></path>
</svg>