<?xml version="1.0" encoding="UTF-8"?>
<svg width="128px" height="128px" viewBox="0 0 128 128" version="1.1" xmlns="http://www.w3.org/2000/svg">
    <path d="M64,12.8 L115.2,40.96 L115.2,97.28 L64,125.44 L12.8,97.28 L12.8,40.96 L64,12.8 Z M64,25.6 L25.6,46.08 L25.6,91.04 L64,111.52 L102.4,91.04 L102.4,46.08 L64,25.6 Z" fill="currentColor"></path>
    <path d="M64,38.4 L89.6,52.8 L89.6,81.6 L64,96 L38.4,81.6 L38.4,52.8 L64,38.4 Z" fill="currentColor" fill-opacity="0.6"></path>
    <path d="M96,51.2 C100.418,51.2 104,54.782 104,59.2 C104,61.831 102.649,64.156 100.603,65.529 L102.4,72.8 C102.4,75.347 100.094,77.04 97.6,77.04 L89.6,77.04 C87.053,77.04 84.8,75.347 84.8,72.8 L86.54,65.529 C84.494,64.156 83.2,61.831 83.2,59.2 C83.2,54.782 86.782,51.2 91.2,51.2 C91.2,51.2 96,51.2 96,51.2 Z" fill="currentColor"></path>
</svg>