<?xml version="1.0" encoding="UTF-8"?>
<svg width="24px" height="24px" viewBox="0 0 24 24" version="1.1" xmlns="http://www.w3.org/2000/svg">
    <g stroke="none" stroke-width="1" fill="none" fill-rule="evenodd">
        <path d="M21,16.5 C21,16.88 20.79,17.21 20.47,17.38 L12.57,21.82 C12.41,21.94 12.21,22 12,22 C11.79,22 11.59,21.94 11.43,21.82 L3.53,17.38 C3.21,17.21 3,16.88 3,16.5 L3,7.5 C3,7.12 3.21,6.79 3.53,6.62 L11.43,2.18 C11.59,2.06 11.79,2 12,2 C12.21,2 12.41,2.06 12.57,2.18 L20.47,6.62 C20.79,6.79 21,7.12 21,7.5 L21,16.5 M12,4.15 L6.04,7.5 L12,10.85 L17.96,7.5 L12,4.15 Z M5,15.91 L11,19.29 L11,12.58 L5,9.21 L5,15.91 M19,15.91 L19,9.21 L13,12.58 L13,19.29 L19,15.91 Z" fill="#000000" fill-rule="nonzero"></path>
    </g>
</svg>